<svg xmlns="http://www.w3.org/2000/svg">
    <symbol id="gt" width="12px" height="12px" viewBox="0 0 19.262 38.727">
        <path d="M19.262,21.476L0,38.727v-5.388l15.544-13.841v-0.272L0,5.385V0l19.262,17.248V21.476z" />
    </symbol>

    <symbol id="check" viewBox="0 0 73.5 73.5">
        <path d="M62.74,10.76c-14.35-14.35-37.62-14.35-51.97,0s-14.35,37.62,0,51.97s37.62,14.35,51.97,0
            C77.09,48.38,77.09,25.12,62.74,10.76z M57.93,27.71L32.4,53.24c-0.38,0.38-1.01,0.38-1.39,0L15.51,37.75
            c-0.38-0.38-0.38-1.01,0-1.39l6.4-6.4c0.38-0.38,1.01-0.38,1.39,0l7.7,7.7c0.38,0.38,1.01,0.38,1.39,0l17.69-17.68
            c0.38-0.38,1.01-0.39,1.4-0.01l6.44,6.35C58.31,26.7,58.31,27.33,57.93,27.71z" />
    </symbol>

    <symbol id="gear" width="20px" height="20px" viewBox="0 0 63.55 63.55">
        <g transform="translate(50 50) scale(0.69 0.69) rotate(0) translate(-50 -50)">
            <path d="M16.04,69.63c-1.98,0-3.62-1.54-3.74-3.52l-0.57-9.25c-1.13-0.4-2.23-0.85-3.3-1.36L1.5,61.64
                c-1.48,1.31-3.73,1.25-5.14-0.16l-10.67-10.67c-1.4-1.4-1.47-3.65-0.16-5.14l6.13-6.94c-0.51-1.07-0.96-2.17-1.36-3.3l-9.24-0.56
                c-1.98-0.12-3.52-1.76-3.52-3.74v-15.1c0-1.98,1.54-3.62,3.52-3.74l9.25-0.57c0.4-1.12,0.85-2.23,1.36-3.3l-6.13-6.94
                c-1.31-1.49-1.24-3.74,0.16-5.14l10.68-10.67c1.41-1.4,3.65-1.47,5.14-0.16l6.94,6.14C9.51-8.84,10.6-9.3,11.73-9.7l0.57-9.25
                c0.12-1.98,1.76-3.52,3.74-3.52h15.1c1.98,0,3.62,1.54,3.74,3.52l0.57,9.25c1.12,0.4,2.23,0.85,3.3,1.36l6.93-6.13
                c1.49-1.31,3.74-1.24,5.14,0.16L61.49-3.64c1.4,1.4,1.47,3.65,0.16,5.13l-6.13,6.94c0.51,1.07,0.96,2.17,1.36,3.3l9.25,0.57
                c1.98,0.12,3.52,1.76,3.52,3.74v15.09c0,1.98-1.54,3.62-3.52,3.74l-9.24,0.57c-0.4,1.12-0.85,2.23-1.36,3.3l6.13,6.93
                c1.31,1.49,1.24,3.74-0.16,5.13L50.81,61.48c-1.41,1.4-3.66,1.47-5.14,0.16l-6.93-6.13c-1.08,0.51-2.17,0.96-3.3,1.36l-0.57,9.24
                c-0.12,1.98-1.76,3.52-3.74,3.52L16.04,69.63z M7.88,47.24c0.64,0,1.28,0.16,1.87,0.5c2.03,1.17,4.24,2.08,6.55,2.71
                c1.55,0.42,2.67,1.78,2.76,3.39l0.51,8.3h8.04l0.51-8.3c0.1-1.61,1.21-2.97,2.76-3.39c2.31-0.62,4.52-1.54,6.55-2.71
                c1.4-0.8,3.15-0.62,4.35,0.44L48,53.68L53.68,48l-5.51-6.22c-1.07-1.21-1.24-2.96-0.44-4.35c1.17-2.03,2.08-4.24,2.71-6.55
                c0.42-1.55,1.78-2.66,3.39-2.76l8.3-0.51v-8.04l-8.3-0.51c-1.61-0.1-2.97-1.21-3.39-2.76c-0.62-2.31-1.53-4.51-2.71-6.55
                c-0.8-1.39-0.62-3.15,0.44-4.35l5.51-6.22L48-6.52l-6.22,5.51c-1.21,1.06-2.96,1.25-4.36,0.44c-2.03-1.17-4.24-2.08-6.54-2.7
                c-1.56-0.42-2.66-1.78-2.76-3.39l-0.51-8.3h-8.04l-0.51,8.31c-0.1,1.61-1.21,2.97-2.76,3.39c-2.3,0.62-4.5,1.53-6.54,2.7
                c-1.4,0.8-3.15,0.62-4.35-0.44l-6.22-5.51l-5.69,5.69l5.51,6.22C0.06,6.6,0.24,8.35-0.56,9.74c-1.17,2.04-2.08,4.24-2.71,6.55
                c-0.42,1.55-1.78,2.66-3.39,2.76l-8.3,0.51v8.04l8.3,0.51c1.61,0.1,2.97,1.21,3.39,2.76c0.62,2.31,1.54,4.51,2.7,6.55
                c0.8,1.4,0.62,3.15-0.45,4.35L-6.51,48l5.69,5.68l6.22-5.51C6.1,47.56,6.98,47.24,7.88,47.24z M23.59,41.41
                c-9.83,0-17.82-7.99-17.82-17.82s8-17.82,17.82-17.82c9.83,0,17.82,7.99,17.82,17.82S33.42,41.41,23.59,41.41z M23.59,13.26
                c-5.69,0-10.32,4.63-10.32,10.32s4.63,10.32,10.32,10.32s10.32-4.63,10.32-10.32S29.28,13.26,23.59,13.26z" />
        </g>
    </symbol>

    <symbol id="users" viewBox="0 0 105 66">
        <path d="M87,57.4c0,3.2,0,7.5,0,7.5c0,0.4-0.4,1-0.8,1H18.8c-0.4,0-0.8-0.6-0.8-1c0,0,0-4.3,0-7.5c0-3.2,0.6-4.5,3-5.8
            c1.9-1.1,14.9-8.6,21-11.2V29.2c-1.9-1.4-3-3.5-3-6.7c0-7.5,0-9,0-9C39,6.1,43.5,0,52.5,0S66,6.1,66,13.5v9c0,3.2-1.1,5.3-3,6.7
            v11.3c6.5,2.6,19.1,10.1,21,11.2C86.4,53,87,54.3,87,57.4z M18.8,47.7l0.4-0.2c6.8-3.9,12.3-6.9,16.4-8.9c-1.9-0.9-3.8-1.7-5.5-2.3
            v-7.9c3-0.9,3-2.4,3-4.6v-5.3c0-5.2-2.7-9.4-9-9.4c-6.3,0-9,4.2-9,9.4c0,0,0,0.1,0,5.3c0,2.2,0,3.7,3,4.7v7.9
            c-6,1.8-13.9,7-15.3,7.8C1.1,45,0,45.9,0,48.1c0,2.2,0,5.2,0,5.2C0,53.6,0.3,54,0.6,54h13.3C14.4,51.5,15.7,49.4,18.8,47.7z
             M102.3,44c-1.3-0.8-9.3-6-15.3-7.8v-7.9c3-0.9,3-2.4,3-4.6v-5.3c0-5.2-2.7-9.4-9-9.4c-6.3,0-9,4.2-9,9.4c0,0,0,0.1,0,5.3
            c0,2.2,0,3.7,3,4.7v7.9c-1.7,0.5-3.6,1.3-5.5,2.2c5.7,2.9,12.6,6.8,15.6,8.6l1.1,0.6c3,1.7,4.4,3.8,4.9,6.3h13.3
            c0.3,0,0.6-0.4,0.6-0.7c0,0,0-3,0-5.2C105,45.9,103.9,45,102.3,44z" />
    </symbol>

    <symbol id="invisible" viewBox="0 0 24 24">
        <path d="M0 0h24v24H0zm0 0h24v24H0zm0 0h24v24H0zm0 0h24v24H0z" fill="none" />
        <path d="M12 7c2.76 0 5 2.24 5 5 0 .65-.13 1.26-.36 1.83l2.92 2.92c1.51-1.26 2.7-2.89
            3.43-4.75-1.73-4.39-6-7.5-11-7.5-1.4 0-2.74.25-3.98.7l2.16 2.16C10.74 7.13 11.35 7 12
            7zM2 4.27l2.28 2.28.46.46C3.08 8.3 1.78 10.02 1 12c1.73 4.39 6 7.5 11 7.5 1.55 0 3.03-.3
            4.38-.84l.42.42L19.73 22 21 20.73 3.27 3 2 4.27zM7.53 9.8l1.55 1.55c-.05.21-.08.43-.08.65
            0 1.66 1.34 3 3 3 .22 0 .44-.03.65-.08l1.55 1.55c-.67.33-1.41.53-2.2.53-2.76 0-5-2.24-5-5
            0-.79.2-1.53.53-2.2zm4.31-.78l3.15 3.15.02-.16c0-1.66-1.34-3-3-3l-.17.01z" />
    </symbol>

    <symbol id="visible" viewBox="0 0 24 24">
        <path d="M0 0h24v24H0z" fill="none" />
        <path d="M12 4.5C7 4.5 2.73 7.61 1 12c1.73 4.39 6 7.5 11 7.5s9.27-3.11 11-7.5c-1.73-4.39-6-7.5-11-7.5zM12
            17c-2.76 0-5-2.24-5-5s2.24-5 5-5 5 2.24 5 5-2.24 5-5 5zm0-8c-1.66 0-3 1.34-3 3s1.34 3 3 3 3-1.34
            3-3-1.34-3-3-3z" />
    </symbol>

    <symbol id="copy" viewBox="0 0 100 100">
        <path d="M91.3,2.5H32.2c-3.4,0-6.2,2.8-6.2,6.2v12.2h41.8c6.3,0,11.4,5.1,11.4,11.4V74h12.1c3.4,0,6.2-2.8,6.2-6.2V8.7 C97.5,5.3,94.7,2.5,91.3,2.5z" />
        <path d="M67.8,26.1H8.7c-3.4,0-6.2,2.7-6.2,6.1v59.1c0,3.4,2.8,6.2,6.2,6.2h59.1c3.4,0,6.2-2.8,6.2-6.2V32.2 C74,28.8,71.2,26.1,67.8,26.1z M56.8,64.4H40.8v15.9c0,1.4-1.2,2.6-2.6,2.6s-2.6-1.2-2.6-2.6V64.4H19.7c-1.4,0-2.6-1.2-2.6-2.6 s1.2-2.6,2.6-2.6h15.9V43.2c0-1.4,1.2-2.6,2.6-2.6s2.6,1.2,2.6,2.6v15.9h15.9c1.4,0,2.6,1.2,2.6,2.6S58.2,64.4,56.8,64.4z" />
    </symbol>
</svg>
