<svg xmlns="http://www.w3.org/2000/svg">
    <symbol id="invisible" viewBox="0 0 24 24">
        <path d="M0 0h24v24H0zm0 0h24v24H0zm0 0h24v24H0zm0 0h24v24H0z" fill="none" />
        <path d="M12 7c2.76 0 5 2.24 5 5 0 .65-.13 1.26-.36 1.83l2.92 2.92c1.51-1.26 2.7-2.89
            3.43-4.75-1.73-4.39-6-7.5-11-7.5-1.4 0-2.74.25-3.98.7l2.16 2.16C10.74 7.13 11.35 7 12
            7zM2 4.27l2.28 2.28.46.46C3.08 8.3 1.78 10.02 1 12c1.73 4.39 6 7.5 11 7.5 1.55 0 3.03-.3
            4.38-.84l.42.42L19.73 22 21 20.73 3.27 3 2 4.27zM7.53 9.8l1.55 1.55c-.05.21-.08.43-.08.65
            0 1.66 1.34 3 3 3 .22 0 .44-.03.65-.08l1.55 1.55c-.67.33-1.41.53-2.2.53-2.76 0-5-2.24-5-5
            0-.79.2-1.53.53-2.2zm4.31-.78l3.15 3.15.02-.16c0-1.66-1.34-3-3-3l-.17.01z" />
    </symbol>

    <symbol id="visible" viewBox="0 0 24 24">
        <path d="M0 0h24v24H0z" fill="none" />
        <path d="M12 4.5C7 4.5 2.73 7.61 1 12c1.73 4.39 6 7.5 11 7.5s9.27-3.11 11-7.5c-1.73-4.39-6-7.5-11-7.5zM12
            17c-2.76 0-5-2.24-5-5s2.24-5 5-5 5 2.24 5 5-2.24 5-5 5zm0-8c-1.66 0-3 1.34-3 3s1.34 3 3 3 3-1.34
            3-3-1.34-3-3-3z" />
    </symbol>

    <symbol id="arrow-section" viewBox="0 0 645.2 335.35">
        <defs><style>.ars-1{stroke-width:0px;}</style></defs>
        <path class="ars-1" d="m322.6,335.35l20.31-18.18L645.2,45.11,604.58,0l-281.98,253.87L40.62,0,0,45.11l302.29,272.06,20.31,18.18h0Z"/>
    </symbol>

    <symbol id="user" viewBox="0 0 868.55 1080.01">
        <defs>
            <style>.user-1{stroke-width:0px;}</style>
        </defs>
        <path class="user-1"
              d="m868.55,1080l-.04-293.36c-.23-109.45-93.34-204.71-229.79-253.14-56.21,46.56-127.19,74.59-204.46,74.59s-148.25-28.03-204.45-74.59C93.19,582,0,677.43,0,787.05l.34,3.34-.34,289.62h868.55Z"/>
        <path class="user-1"
              d="m181.71,265.81c0,146.57,113.28,265.81,252.53,265.81s252.53-119.24,252.53-265.81c.01-146.57-113.28-265.81-252.52-265.81s-252.54,119.24-252.54,265.81h0Z"/>
    </symbol>

</svg>
