<svg>
    <symbol id="gt" viewBox="0 0 19.262 38.727">
        <path d="M19.262,21.476L0,38.727v-5.388l15.544-13.841v-0.272L0,5.385V0l19.262,17.248V21.476z"/>
    </symbol>

    <symbol id="check" viewBox="0 0 73.5 73.5">
        <path d="M62.74,10.76c-14.35-14.35-37.62-14.35-51.97,0s-14.35,37.62,0,51.97s37.62,14.35,51.97,0
            C77.09,48.38,77.09,25.12,62.74,10.76z M57.93,27.71L32.4,53.24c-0.38,0.38-1.01,0.38-1.39,0L15.51,37.75
            c-0.38-0.38-0.38-1.01,0-1.39l6.4-6.4c0.38-0.38,1.01-0.38,1.39,0l7.7,7.7c0.38,0.38,1.01,0.38,1.39,0l17.69-17.68
            c0.38-0.38,1.01-0.39,1.4-0.01l6.44,6.35C58.31,26.7,58.31,27.33,57.93,27.71z"/>
    </symbol>

    <symbol id="gear" viewBox="0 0 71.713 71.713">
        <path d="M71.382,40.474c0.197-1.515,0.331-3.047,0.331-4.617c0-1.57-0.135-3.102-0.331-4.617l-9.472-2.37
                c-0.615-2.302-1.52-4.482-2.687-6.501l5.019-8.362c-1.89-2.452-4.084-4.646-6.536-6.536l-8.362,5.019
                c-2.018-1.166-4.198-2.071-6.501-2.686l-2.37-9.472C38.959,0.135,37.427,0,35.856,0c-1.57,0-3.102,0.135-4.617,0.331l-2.37,9.472
                c-2.3,0.615-4.479,1.52-6.495,2.686L14.01,7.468c-2.452,1.889-4.646,4.084-6.536,6.536l5.019,8.361
                c-1.169,2.018-2.074,4.198-2.689,6.504l-9.472,2.37C0.135,32.754,0,34.286,0,35.856c0,1.57,0.135,3.103,0.331,4.617l9.472,2.37
                c0.615,2.303,1.52,4.485,2.689,6.501l-5.022,8.362c1.89,2.452,4.084,4.646,6.536,6.536l8.362-5.019
                c2.018,1.166,4.198,2.071,6.501,2.687l2.37,9.472c1.515,0.197,3.047,0.331,4.617,0.331c1.57,0,3.103-0.135,4.617-0.331l2.37-9.472
                c2.306-0.618,4.485-1.52,6.504-2.689l8.364,5.019c2.449-1.89,4.644-4.084,6.533-6.536l-5.021-8.361
                c1.166-2.019,2.071-4.195,2.687-6.498L71.382,40.474z M35.856,48.398c-6.926,0-12.542-5.616-12.542-12.542
                c0-6.926,5.616-12.542,12.542-12.542c6.926,0,12.542,5.616,12.542,12.542C48.398,42.782,42.782,48.398,35.856,48.398z"/>
    </symbol>

    <symbol id="users" viewBox="0 0 105 66">
        <path d="M87,57.4c0,3.2,0,7.5,0,7.5c0,0.4-0.4,1-0.8,1H18.8c-0.4,0-0.8-0.6-0.8-1c0,0,0-4.3,0-7.5c0-3.2,0.6-4.5,3-5.8
                c1.9-1.1,14.9-8.6,21-11.2V29.2c-1.9-1.4-3-3.5-3-6.7c0-7.5,0-9,0-9C39,6.1,43.5,0,52.5,0S66,6.1,66,13.5v9c0,3.2-1.1,5.3-3,6.7
                v11.3c6.5,2.6,19.1,10.1,21,11.2C86.4,53,87,54.3,87,57.4z M18.8,47.7l0.4-0.2c6.8-3.9,12.3-6.9,16.4-8.9c-1.9-0.9-3.8-1.7-5.5-2.3
                v-7.9c3-0.9,3-2.4,3-4.6v-5.3c0-5.2-2.7-9.4-9-9.4c-6.3,0-9,4.2-9,9.4c0,0,0,0.1,0,5.3c0,2.2,0,3.7,3,4.7v7.9
                c-6,1.8-13.9,7-15.3,7.8C1.1,45,0,45.9,0,48.1c0,2.2,0,5.2,0,5.2C0,53.6,0.3,54,0.6,54h13.3C14.4,51.5,15.7,49.4,18.8,47.7z
                 M102.3,44c-1.3-0.8-9.3-6-15.3-7.8v-7.9c3-0.9,3-2.4,3-4.6v-5.3c0-5.2-2.7-9.4-9-9.4c-6.3,0-9,4.2-9,9.4c0,0,0,0.1,0,5.3
                c0,2.2,0,3.7,3,4.7v7.9c-1.7,0.5-3.6,1.3-5.5,2.2c5.7,2.9,12.6,6.8,15.6,8.6l1.1,0.6c3,1.7,4.4,3.8,4.9,6.3h13.3
                c0.3,0,0.6-0.4,0.6-0.7c0,0,0-3,0-5.2C105,45.9,103.9,45,102.3,44z"/>
    </symbol>
</svg>