<svg xmlns="http://www.w3.org/2000/svg" width="376.4" height="387.5" viewBox="0 0 376.4 387.5"><path fill="#F9A600" d="M345.3 368.1c0 6.6-5.4 12-12 12H12c-6.6 0-12-5.4-12-12V46.8c0-6.6 5.4-12 12-12h321.3c6.6 0 12 5.4 12 12v321.3z"/><path fill="#fff" d="M336.3 359.8c0 6.3-5.1 11.4-11.4 11.4H20.4c-6.3 0-11.4-5.1-11.4-11.4V55.2c0-6.3 5.1-11.4 11.4-11.4H325c6.3 0 11.4 5.1 11.4 11.4v304.6z"/><path fill="#F9A600" d="M331.2 355c0 6.1-4.9 11-11 11H25.1c-6.1 0-11-4.9-11-11V59.9c0-6.1 4.9-11 11-11h295.1c6.1 0 11 4.9 11 11V355z"/><path d="M376.4 23.8c0 5.4-3.2 13.7-9.6 24.8-5 8.8-10.1 17.6-15.1 26.4-10.4 21.6-31.8 48.7-64 81.1-21.2 21.3-35.1 36-41.8 44.1-16.8 19.6-25.2 34.5-25.2 44.6 0 11.2 8.4 23.5 25.1 37 14.4 11.5 24.4 21.5 30.1 29.9 7 10.5 11.4 23.3 13 38.5-5.4.7-9.2 1-11.6 1-15.4 0-31.5-7.5-48.3-22.5-15.4-13.7-30.7-27.5-45.8-41.5-19 33.6-37.7 67-56.3 100.2-16.2-11.8-24.4-22.1-24.4-30.8 0-4.4 1.5-10.5 4.6-18.4 3.1-7.9 5.7-14.9 7.9-21s7.2-16 15-29.8c6.4-11.5 9.7-20.2 9.7-26.3 0-8.8-4.1-18.3-12.2-28.6s-17.6-21.1-28.4-32.6c-16.2-17.2-25.7-27.5-28.4-30.8-16.2-16.5-27.4-28.1-33.4-34.9C27 122.8 21.8 112 21.8 101.9c0-9.1 3.9-19.9 11.6-32.4 18.5 11.7 38.4 31.2 59.6 58.3 29.3 37.9 46.8 59.8 52.5 65.8 11.4 12.4 21.7 18.6 30.8 18.6 6.4 0 13.3-3.5 20.7-10.6 5.7-5.4 13.5-14.3 23.2-26.8 13.1-16.2 27.8-35.4 44-57.6 14.1-19.5 28.7-39.5 43.7-59.9 15-20.4 29.5-39.5 43.7-57.4 1.7 2.7 3.5 5.4 5.5 8.1 6.5 5.5 12.9 10.8 19.3 15.8zM229.7 233.7c0-.2-.1-.8-.3-1.9-.2-1.1-.3-1.9-.3-2.5 0-.7.1-1.2.2-1.5.1-.3.5-.5 1-.5.4 0 .8.1 1.2.3.8.4 1.3 1.1 1.6 2 .3.9.4 2.1.4 3.6 0 .9 0 2-.1 3.3-.1 1.4-.1 2.2-.1 2.6 1.1-.4 2.3-1.1 3.5-2.1 3.6-3 5.4-4.5 5.6-4.6.7-.4 1.4-.6 1.9-.6 1.3 0 2.4 1.2 3.1 3.6.5 2.1 1 4.1 1.6 6.2 1.3-1.7 2.3-2.9 3-3.8 1.4-1.6 2.6-2.5 3.7-2.5.6 0 1.2.3 1.8.8.6.5 1 1.3 1.3 2.3.3 1 .5 2.4.5 4.4 0 2.2.2 3.8.6 4.7.6 1.3 1.8 2 3.7 2 2.2 0 3.8.1 4.9.3 1 .2 2.2.7 3.6 1.5l-5.4 2.4c-2.2.8-4.2 1.3-6 1.3-2.3.2-3.8-1.4-4.6-4.8l-1.5-7.8c-1.1 1.5-2.4 3.8-3.7 6.9-1.5 3.3-2.7 5.6-3.5 7-1-.7-1.7-1.3-2-2-.3-.6-.5-1.4-.5-2.4v-3.4c0-2.2-.1-4.2-.2-5.8s-.5-3.5-1-5.7c-1.8 1.4-3.3 2.7-4.6 3.8-1.1 1-2.6 2.4-4.4 4-.7.7-1.2 1.4-1.5 2.3-.3.8-.4 1.8-.4 2.8v1.9c0 .6.1 1.3.1 1.9 0 .3 0 .5-.1.8 0 .3-.1.5-.1.6-2.2-.2-3.5-1.5-3.9-3.7-.5-3.1-1.2-5.1-2.1-6 1.1-1.4 1.8-2.8 2.3-4.4.5-1.6.7-3.2.7-5v-2.3z"/></svg>