<svg xmlns="http://www.w3.org/2000/svg" version="1.1" xmlns:xlink="http://www.w3.org/1999/xlink" width="376.39" height="387.5"><svg id="SvgjsSvg1014" data-name="Layer 1" xmlns="http://www.w3.org/2000/svg" viewBox="0 0 376.39 387.5">
  <defs>
    <style>
      .cls-1 {
        fill: #fff;
      }

      .cls-2 {
        fill: #f9a600;
      }
    </style>
  </defs>
  <rect class="cls-2" y="34.82" width="345.3" height="345.3" rx="12" ry="12"></rect>
  <path class="cls-1" d="M20.35,43.8h304.6c6.28,0,11.38,5.1,11.38,11.38v304.6c0,6.28-5.1,11.38-11.38,11.38H20.35c-6.28,0-11.38-5.1-11.38-11.38V55.17c0-6.28,5.1-11.38,11.38-11.38Z"></path>
  <rect class="cls-2" x="14.1" y="48.92" width="317.09" height="317.09" rx="11.02" ry="11.02"></rect>
  <path d="M376.39,23.83c0,5.41-3.19,13.69-9.56,24.83-5.05,8.8-10.08,17.58-15.11,26.36-10.42,21.62-31.75,48.66-63.97,81.09-21.16,21.3-35.09,36-41.8,44.09-16.8,19.61-25.19,34.48-25.19,44.61,0,11.16,8.36,23.48,25.09,37,14.37,11.5,24.41,21.47,30.09,29.91,7.02,10.47,11.36,23.31,13.05,38.52-5.37.69-9.23,1.02-11.58,1.02-15.44,0-31.55-7.5-48.31-22.53-15.44-13.66-30.72-27.47-45.81-41.47-18.95,33.59-37.73,67-56.34,100.25-16.25-11.78-24.36-22.06-24.36-30.84,0-4.37,1.52-10.52,4.58-18.44,3.06-7.92,5.69-14.92,7.89-20.98s7.22-16.02,15.03-29.84c6.44-11.45,9.67-20.22,9.67-26.28,0-8.75-4.06-18.28-12.16-28.56-8.11-10.28-17.56-21.14-28.36-32.61-16.22-17.19-25.67-27.47-28.36-30.84-16.22-16.5-27.36-28.12-33.42-34.87-10.47-11.47-15.7-22.25-15.7-32.36,0-9.09,3.87-19.89,11.62-32.36,18.52,11.73,38.39,31.17,59.61,58.31,29.28,37.88,46.8,59.81,52.53,65.84,11.44,12.41,21.72,18.59,30.81,18.59,6.39,0,13.3-3.53,20.72-10.61,5.72-5.39,13.45-14.31,23.23-26.78,13.12-16.17,27.78-35.37,43.95-57.61,14.14-19.53,28.7-39.5,43.69-59.89,14.98-20.37,29.55-39.5,43.7-57.36,1.67,2.72,3.52,5.42,5.55,8.11,6.41,5.41,12.8,10.66,19.2,15.72Z"></path>
  <path d="M229.69,233.69c0-.16-.12-.78-.34-1.86-.23-1.08-.34-1.93-.34-2.55,0-.69.07-1.18.22-1.49.15-.31.46-.47.95-.47.36,0,.76.12,1.22.34.78.39,1.32,1.06,1.61,2.01.29.95.44,2.14.44,3.58,0,.85-.05,1.96-.15,3.31-.1,1.36-.13,2.22-.1,2.58,1.11-.36,2.29-1.07,3.54-2.12,3.57-2.95,5.44-4.48,5.6-4.58.72-.43,1.36-.64,1.92-.64,1.34,0,2.39,1.2,3.14,3.6.52,2.06,1.05,4.12,1.57,6.18,1.28-1.67,2.29-2.94,3.05-3.82,1.41-1.63,2.64-2.45,3.68-2.45.62,0,1.22.27,1.79.81.57.54,1.01,1.29,1.33,2.26.31.96.47,2.43.47,4.39,0,2.22.2,3.78.59,4.66.59,1.34,1.81,2.01,3.68,2.01,2.22,0,3.84.09,4.85.27,1.01.18,2.21.69,3.58,1.54-1.83.78-3.64,1.57-5.44,2.35-2.22.85-4.23,1.27-6.03,1.27-2.32.2-3.84-1.42-4.56-4.85-.52-2.61-1.03-5.22-1.52-7.84-1.11,1.54-2.35,3.84-3.72,6.91-1.5,3.3-2.68,5.62-3.53,6.95-1.01-.69-1.68-1.34-2.01-1.97-.33-.62-.49-1.42-.49-2.41,0-.26.02-.78.05-1.55.03-.77.05-1.42.05-1.94,0-2.23-.08-4.17-.25-5.82s-.49-3.55-.98-5.67c-1.79,1.41-3.34,2.68-4.65,3.83-1.14,1.01-2.61,2.36-4.4,4.02-.72.69-1.21,1.44-1.47,2.26-.26.82-.39,1.75-.39,2.8,0,.65.01,1.3.04,1.94.03.64.06,1.27.08,1.89,0,.26-.02.53-.06.81-.04.28-.06.48-.06.61-2.21-.23-3.5-1.45-3.85-3.67-.52-3.07-1.24-5.06-2.15-5.98,1.07-1.37,1.85-2.83,2.33-4.39.49-1.55.73-3.23.73-5.02v-2.11Z"></path>
</svg><style>@media (prefers-color-scheme: light) { :root { filter: none; } }
@media (prefers-color-scheme: dark) { :root { filter: none; } }
</style></svg>