<svg version="1" xmlns="http://www.w3.org/2000/svg" width="517.333" height="517.333" viewBox="0 0 388.000000 388.000000"><path d="M340.9 21.2c-19.2 24.8-23.2 30.2-52.4 70.3-42.5 58.3-70.8 94.8-83.4 107.3-12.9 12.9-22.6 15.6-34.6 9.8-8.9-4.3-23.7-19.8-46.5-49-32.4-41.3-38.3-48.7-48.6-59.5-9.8-10.3-22.9-21.9-31.7-28L39.2 69l-4 7.8c-8.6 16.6-9.5 28.3-3 41.3 4.2 8.3 8.9 14 33.3 39.6 42.5 44.6 65.5 70.3 72.3 81 7.3 11.4 9 22.1 5.3 32.9-1.1 3-6 13-11 22.2-9.1 17-21.1 46.7-23.1 57.3-2 10.5 3.4 19.8 18.1 31.4l5.7 4.5 8.9-15.8c4.9-8.6 17.6-31.1 28.2-50l19.3-34.2 11.2 10.3c20.3 18.8 40.7 36.7 46.5 40.6 14.8 10.1 28.1 14.1 41.6 12.6l6.6-.7-.7-3.6c-4.3-26.2-13.1-40-38.7-61.6-14.6-12.1-21.8-20-25.8-28.1-2.9-5.9-3.1-7.1-2.7-13.2 1.2-16.3 14.4-34 60.4-81.4 34.1-35 52.5-56.7 62-73.1 22.2-38.1 32.5-58.4 32.3-63.6 0-.9-4.1-4.9-9-8.7-4.9-3.9-10.5-9.1-12.3-11.8L357.3 0l-16.4 21.2z"/><path d="M235 233.2c0 3.4-.5 7.5-1.1 9.2-1.3 3.9.7 10.9 3.4 11.4 1.4.3 1.7-.4 1.7-4.1 0-4.2.4-4.8 4.9-8.6 2.6-2.2 5.1-3.8 5.5-3.4.3.3.6 3.8.6 7.8 0 4.5.5 7.8 1.4 9 1.3 1.8 1.6 1.5 4.7-4.7 3.3-6.7 4.9-7.8 4.9-3.3 0 3.2 1.9 7.3 3.8 8 1.8.6 12.2-2.4 12.2-3.5 0-1.2-2.8-2-6.5-2-3.9 0-5.5-2-5.5-7 0-3.7-1.6-7-3.4-7-.7 0-2.3 1.1-3.6 2.5-3 3.2-3.6 3.2-4.4-.7-.6-3.2-2.3-5.8-3.6-5.8-.5 0-2.7 1.6-5 3.5s-4.6 3.5-5.1 3.5-.9-1.8-.9-3.9c0-4.9-.8-7.1-2.6-7.1-1 0-1.4 1.6-1.4 6.2z"/></svg>