<!-- Generator: Adobe Illustrator 23.0.0, SVG Export Plug-In  -->
<svg version="1.1" xmlns="http://www.w3.org/2000/svg" xmlns:xlink="http://www.w3.org/1999/xlink" x="0px" y="0px"
     width="73.495px" height="73.495px" viewBox="0 0 73.495 73.495" enable-background="new 0 0 73.495 73.495" xml:space="preserve">
<defs>
</defs>
    <path d="M62.733,10.763c-14.35-14.35-37.62-14.35-51.97,0s-14.35,37.62,0,51.97s37.62,14.35,51.97,0S77.082,25.123,62.733,10.763z
	 M57.923,27.712l-25.53,25.53c-0.38,0.38-1.01,0.38-1.39,0l-15.5-15.49c-0.38-0.38-0.38-1.01,0-1.39l6.4-6.4
	c0.38-0.38,1.01-0.38,1.39,0l7.7,7.7c0.38,0.38,1.01,0.38,1.39,0l17.69-17.68c0.38-0.38,1.01-0.39,1.4-0.01l6.44,6.35
	C58.303,26.703,58.303,27.333,57.923,27.712z"/>
</svg>
