<!-- Generator: Adobe Illustrator 23.0.0, SVG Export Plug-In  -->
<svg version="1.1" xmlns="http://www.w3.org/2000/svg" xmlns:xlink="http://www.w3.org/1999/xlink" x="0px" y="0px"
     width="71.713px" height="71.713px" viewBox="0 0 71.713 71.713" enable-background="new 0 0 71.713 71.713" xml:space="preserve">
<defs>
</defs>
    <path d="M71.382,40.474c0.197-1.515,0.331-3.047,0.331-4.617s-0.135-3.102-0.331-4.617l-9.472-2.37
	c-0.615-2.302-1.52-4.482-2.687-6.501l5.019-8.362c-1.89-2.452-4.084-4.646-6.536-6.536l-8.362,5.019
	c-2.018-1.166-4.198-2.071-6.501-2.686l-2.37-9.472C38.959,0.135,37.427,0,35.856,0c-1.57,0-3.102,0.135-4.617,0.331l-2.37,9.472
	c-2.3,0.615-4.479,1.52-6.495,2.686L14.01,7.468c-2.452,1.889-4.646,4.084-6.536,6.536l5.019,8.361
	c-1.169,2.018-2.074,4.198-2.689,6.504l-9.472,2.37C0.135,32.754,0,34.286,0,35.856s0.135,3.103,0.331,4.617l9.472,2.37
	c0.615,2.303,1.52,4.485,2.689,6.501L7.47,57.706c1.89,2.452,4.084,4.646,6.536,6.536l8.362-5.019
	c2.018,1.166,4.198,2.071,6.501,2.687l2.37,9.472c1.515,0.197,3.047,0.331,4.617,0.331s3.103-0.135,4.617-0.331l2.37-9.472
	c2.306-0.618,4.485-1.52,6.504-2.689l8.364,5.019c2.449-1.89,4.644-4.084,6.533-6.536l-5.021-8.361
	c1.166-2.019,2.071-4.195,2.687-6.498L71.382,40.474z M35.856,48.398c-6.926,0-12.542-5.616-12.542-12.542
	s5.616-12.542,12.542-12.542s12.542,5.616,12.542,12.542S42.782,48.398,35.856,48.398z"/>
</svg>