<!-- Generator: Adobe Illustrator 23.0.0, SVG Export Plug-In  -->
<svg version="1.1" xmlns="http://www.w3.org/2000/svg" xmlns:xlink="http://www.w3.org/1999/xlink" x="0px" y="0px" width="105px"
     height="65.9px" viewBox="0 0 105 65.9" enable-background="new 0 0 105 65.9" xml:space="preserve">
<defs>
</defs>
    <path d="M87,57.4c0,3.2,0,7.5,0,7.5c0,0.4-0.4,1-0.8,1H18.8c-0.4,0-0.8-0.6-0.8-1c0,0,0-4.3,0-7.5s0.6-4.5,3-5.8
	c1.9-1.1,14.9-8.6,21-11.2V29.2c-1.9-1.4-3-3.5-3-6.7c0-7.5,0-9,0-9C39,6.1,43.5,0,52.5,0S66,6.1,66,13.5v9c0,3.2-1.1,5.3-3,6.7
	v11.3c6.5,2.6,19.1,10.1,21,11.2C86.4,53,87,54.3,87,57.4z M18.8,47.7l0.4-0.2c6.8-3.9,12.3-6.9,16.4-8.9c-1.9-0.9-3.8-1.7-5.5-2.3
	v-7.9c3-0.9,3-2.4,3-4.6v-5.3c0-5.2-2.7-9.4-9-9.4s-9,4.2-9,9.4c0,0,0,0.1,0,5.3c0,2.2,0,3.7,3,4.7v7.9c-6,1.8-13.9,7-15.3,7.8
	C1.1,45,0,45.9,0,48.1c0,2.2,0,5.2,0,5.2C0,53.6,0.3,54,0.6,54h13.3C14.4,51.5,15.7,49.4,18.8,47.7z M102.3,44
	C101,43.2,93,38,87,36.2v-7.9c3-0.9,3-2.4,3-4.6v-5.3c0-5.2-2.7-9.4-9-9.4s-9,4.2-9,9.4c0,0,0,0.1,0,5.3c0,2.2,0,3.7,3,4.7v7.9
	c-1.7,0.5-3.6,1.3-5.5,2.2c5.7,2.9,12.6,6.8,15.6,8.6l1.1,0.6c3,1.7,4.4,3.8,4.9,6.3h13.3c0.3,0,0.6-0.4,0.6-0.7c0,0,0-3,0-5.2
	S103.9,45,102.3,44z"/>
</svg>
